<svg width="50%" height="50%" viewBox="0 0 200 200" xmlns="http://www.w3.org/2000/svg" fill="#173046" aria-label="tiktok;source=beacons classic"><path d="M107.867 13.4255V131.484C107.867 144.526 97.2917 155.092 84.2583 155.092C71.2167 155.092 60.65 144.517 60.65 131.484C60.65 118.442 71.225 107.876 84.2583 107.876V76.3922C53.8333 76.3922 29.1667 101.059 29.1667 131.484C29.1667 161.909 53.8333 186.576 84.2583 186.576C114.683 186.576 139.35 161.909 139.35 131.484V76.3922L141.008 77.2255C150.267 81.8589 160.475 84.2672 170.825 84.2672V52.7755L169.883 52.5422C151.933 48.0589 139.342 31.9255 139.342 13.4255H107.867Z"></path></svg>